<svg id="SVGID" width="100%" xmlns="http://www.w3.org/2000/svg" class="flowchart" style="max-width: 564.5859375px;" viewBox="0 0 564.5859375 1121.9769287109375" role="graphics-document document" aria-roledescription="flowchart-v2"><style>#SVGID{font-family:"trebuchet ms",verdana,arial,sans-serif;font-size:16px;fill:#000000;}#SVGID .error-icon{fill:#552222;}#SVGID .error-text{fill:#552222;stroke:#552222;}#SVGID .edge-thickness-normal{stroke-width:1px;}#SVGID .edge-thickness-thick{stroke-width:3.5px;}#SVGID .edge-pattern-solid{stroke-dasharray:0;}#SVGID .edge-thickness-invisible{stroke-width:0;fill:none;}#SVGID .edge-pattern-dashed{stroke-dasharray:3;}#SVGID .edge-pattern-dotted{stroke-dasharray:2;}#SVGID .marker{fill:#666;stroke:#666;}#SVGID .marker.cross{stroke:#666;}#SVGID svg{font-family:"trebuchet ms",verdana,arial,sans-serif;font-size:16px;}#SVGID p{margin:0;}#SVGID .label{font-family:"trebuchet ms",verdana,arial,sans-serif;color:#000000;}#SVGID .cluster-label text{fill:#333;}#SVGID .cluster-label span{color:#333;}#SVGID .cluster-label span p{background-color:transparent;}#SVGID .label text,#SVGID span{fill:#000000;color:#000000;}#SVGID .node rect,#SVGID .node circle,#SVGID .node ellipse,#SVGID .node polygon,#SVGID .node path{fill:#eee;stroke:#999;stroke-width:1px;}#SVGID .rough-node .label text,#SVGID .node .label text{text-anchor:middle;}#SVGID .node .katex path{fill:#000;stroke:#000;stroke-width:1px;}#SVGID .node .label{text-align:center;}#SVGID .node.clickable{cursor:pointer;}#SVGID .arrowheadPath{fill:#333333;}#SVGID .edgePath .path{stroke:#666;stroke-width:2.0px;}#SVGID .flowchart-link{stroke:#666;fill:none;}#SVGID .edgeLabel{background-color:white;text-align:center;}#SVGID .edgeLabel p{background-color:white;}#SVGID .edgeLabel rect{opacity:0.5;background-color:white;fill:white;}#SVGID .labelBkg{background-color:rgba(255, 255, 255, 0.5);}#SVGID .cluster rect{fill:hsl(0, 0%, 98.9215686275%);stroke:#707070;stroke-width:1px;}#SVGID .cluster text{fill:#333;}#SVGID .cluster span{color:#333;}#SVGID div.mermaidTooltip{position:absolute;text-align:center;max-width:200px;padding:2px;font-family:"trebuchet ms",verdana,arial,sans-serif;font-size:12px;background:hsl(-160, 0%, 93.3333333333%);border:1px solid #707070;border-radius:2px;pointer-events:none;z-index:100;}#SVGID .flowchartTitleText{text-anchor:middle;font-size:18px;fill:#000000;}#SVGID :root{--mermaid-font-family:"trebuchet ms",verdana,arial,sans-serif;}</style><g><marker id="SVGID_flowchart-v2-pointEnd" class="marker flowchart-v2" viewBox="0 0 10 10" refX="5" refY="5" markerUnits="userSpaceOnUse" markerWidth="8" markerHeight="8" orient="auto"><path d="M 0 0 L 10 5 L 0 10 z" class="arrowMarkerPath" style="stroke-width: 1; stroke-dasharray: 1, 0;"></path></marker><marker id="SVGID_flowchart-v2-pointStart" class="marker flowchart-v2" viewBox="0 0 10 10" refX="4.5" refY="5" markerUnits="userSpaceOnUse" markerWidth="8" markerHeight="8" orient="auto"><path d="M 0 5 L 10 10 L 10 0 z" class="arrowMarkerPath" style="stroke-width: 1; stroke-dasharray: 1, 0;"></path></marker><marker id="SVGID_flowchart-v2-circleEnd" class="marker flowchart-v2" viewBox="0 0 10 10" refX="11" refY="5" markerUnits="userSpaceOnUse" markerWidth="11" markerHeight="11" orient="auto"><circle cx="5" cy="5" r="5" class="arrowMarkerPath" style="stroke-width: 1; stroke-dasharray: 1, 0;"></circle></marker><marker id="SVGID_flowchart-v2-circleStart" class="marker flowchart-v2" viewBox="0 0 10 10" refX="-1" refY="5" markerUnits="userSpaceOnUse" markerWidth="11" markerHeight="11" orient="auto"><circle cx="5" cy="5" r="5" class="arrowMarkerPath" style="stroke-width: 1; stroke-dasharray: 1, 0;"></circle></marker><marker id="SVGID_flowchart-v2-crossEnd" class="marker cross flowchart-v2" viewBox="0 0 11 11" refX="12" refY="5.2" markerUnits="userSpaceOnUse" markerWidth="11" markerHeight="11" orient="auto"><path d="M 1,1 l 9,9 M 10,1 l -9,9" class="arrowMarkerPath" style="stroke-width: 2; stroke-dasharray: 1, 0;"></path></marker><marker id="SVGID_flowchart-v2-crossStart" class="marker cross flowchart-v2" viewBox="0 0 11 11" refX="-1" refY="5.2" markerUnits="userSpaceOnUse" markerWidth="11" markerHeight="11" orient="auto"><path d="M 1,1 l 9,9 M 10,1 l -9,9" class="arrowMarkerPath" style="stroke-width: 2; stroke-dasharray: 1, 0;"></path></marker><g class="root"><g class="clusters"></g><g class="edgePaths"></g><g class="edgeLabels"></g><g class="nodes"><g class="root" transform="translate(0, 0)"><g class="clusters"><g class="cluster " id="ECommerceSystem" data-look="classic"><rect style="" x="8" y="8" width="548.5859375" height="1105.976969718933"></rect><g class="cluster-label " transform="translate(209.29296875, 8)"><g><rect class="background" style="stroke: none"></rect><text y="-10.1" style=""><tspan class="text-outer-tspan" x="0" y="-0.1em" dy="1.1em"><tspan font-style="normal" class="text-inner-tspan" font-weight="normal">E-Commerce</tspan><tspan font-style="normal" class="text-inner-tspan" font-weight="normal"> System</tspan></tspan></text></g></g></g><g class="cluster " id="ItemManagement" data-look="classic"><rect style="" x="258.6234436035156" y="509.5461015701294" width="260.4624938964844" height="315.2000045776367"></rect><g class="cluster-label " transform="translate(324.6312561035156, 509.5461015701294)"><g><rect class="background" style="stroke: none"></rect><text y="-10.1" style=""><tspan class="text-outer-tspan" x="0" y="-0.1em" dy="1.1em"><tspan font-style="normal" class="text-inner-tspan" font-weight="normal">Item</tspan><tspan font-style="normal" class="text-inner-tspan" font-weight="normal"> Management</tspan></tspan></text></g></g></g><g class="cluster " id="AdminFunctions" data-look="classic"><rect style="" x="258.6234436035156" y="844.7461061477661" width="260.4624938964844" height="217.2000026702881"></rect><g class="cluster-label " transform="translate(329.31718826293945, 844.7461061477661)"><g><rect class="background" style="stroke: none"></rect><text y="-10.1" style=""><tspan class="text-outer-tspan" x="0" y="-0.1em" dy="1.1em"><tspan font-style="normal" class="text-inner-tspan" font-weight="normal">Admin</tspan><tspan font-style="normal" class="text-inner-tspan" font-weight="normal"> Functions</tspan></tspan></text></g></g></g><g class="cluster " id="UserFunctions" data-look="classic"><rect style="" x="258.6234436035156" y="28" width="260.4624938964844" height="461.5461015701294"></rect><g class="cluster-label " transform="translate(336.28593826293945, 28)"><g><rect class="background" style="stroke: none"></rect><text y="-10.1" style=""><tspan class="text-outer-tspan" x="0" y="-0.1em" dy="1.1em"><tspan font-style="normal" class="text-inner-tspan" font-weight="normal">User</tspan><tspan font-style="normal" class="text-inner-tspan" font-weight="normal"> Functions</tspan></tspan></text></g></g></g></g><g class="edgePaths"><path d="M128.514,214.493L143.949,235.944C159.384,257.395,190.254,300.298,211.939,321.749C233.623,343.2,246.123,343.2,259.142,346.044C272.16,348.887,285.696,354.574,298.618,360.003C311.54,365.432,323.847,370.603,330.001,373.188L336.154,375.774" id="L_User_Login_0" class=" edge-thickness-normal edge-pattern-solid edge-thickness-normal edge-pattern-solid flowchart-link" style="" marker-end="url(#SVGID_flowchart-v2-pointEnd)"></path><path d="M132.906,210.405L147.609,222.671C162.312,234.937,191.718,259.468,212.67,271.734C233.623,284,246.123,284,257.425,284C268.727,284,278.83,284,288.266,284C297.703,284,306.472,284,310.857,284L315.242,284" id="L_User_ViewItems_1" class=" edge-thickness-normal edge-pattern-solid edge-thickness-normal edge-pattern-solid flowchart-link" style="" marker-end="url(#SVGID_flowchart-v2-pointEnd)"></path><path d="M138.356,192.98L152.151,191.75C165.945,190.52,193.534,188.06,213.579,186.83C233.623,185.6,246.123,185.6,257.258,185.6C268.392,185.6,278.16,185.6,287.262,185.6C296.364,185.6,304.799,185.6,309.017,185.6L313.234,185.6" id="L_User_AddToCart_2" class=" edge-thickness-normal edge-pattern-solid edge-thickness-normal edge-pattern-solid flowchart-link" style="" marker-end="url(#SVGID_flowchart-v2-pointEnd)"></path><path d="M131.348,178.105L146.311,162.954C161.273,147.803,191.198,117.502,212.411,102.351C233.623,87.2,246.123,87.2,257.944,87.2C269.765,87.2,280.907,87.2,291.383,87.2C301.858,87.2,311.666,87.2,316.571,87.2L321.475,87.2" id="L_User_Checkout_3" class=" edge-thickness-normal edge-pattern-solid edge-thickness-normal edge-pattern-solid flowchart-link" style="" marker-end="url(#SVGID_flowchart-v2-pointEnd)"></path><path d="M133.956,598.884L148.484,616.389C163.012,633.895,192.068,668.905,212.846,729.615C233.623,790.326,246.123,876.736,256.66,921.231C267.197,965.727,275.771,968.308,283.707,970.696C291.643,973.085,298.94,975.281,302.588,976.38L306.237,977.478" id="L_Admin_ManageUsers_4" class=" edge-thickness-normal edge-pattern-solid edge-thickness-normal edge-pattern-solid flowchart-link" style="" marker-end="url(#SVGID_flowchart-v2-pointEnd)"></path><path d="M135.851,597.172L150.063,611.629C164.275,626.086,192.699,655.001,213.161,706.13C233.623,757.259,246.123,830.602,255.498,867.274C264.873,903.946,271.123,903.946,276.707,903.946C282.29,903.946,287.207,903.946,289.665,903.946L292.123,903.946" id="L_Admin_GenerateReports_5" class=" edge-thickness-normal edge-pattern-solid edge-thickness-normal edge-pattern-solid flowchart-link" style="" marker-end="url(#SVGID_flowchart-v2-pointEnd)"></path><path d="M144.798,572.678L157.519,571.484C170.24,570.29,195.682,567.903,214.652,593.514C233.623,619.126,246.123,672.736,257.989,701.231C269.854,729.726,281.084,733.107,291.676,736.295C302.268,739.483,312.221,742.479,317.198,743.977L322.174,745.475" id="L_Admin_AddItem_6" class=" edge-thickness-normal edge-pattern-solid edge-thickness-normal edge-pattern-solid flowchart-link" style="" marker-end="url(#SVGID_flowchart-v2-pointEnd)"></path><path d="M143.794,567.286L156.682,563.657C169.571,560.029,195.347,552.772,214.485,569.415C233.623,586.059,246.123,626.602,257.975,646.874C269.827,667.146,281.03,667.146,291.566,667.146C302.103,667.146,311.972,667.146,316.907,667.146L321.842,667.146" id="L_Admin_EditItem_7" class=" edge-thickness-normal edge-pattern-solid edge-thickness-normal edge-pattern-solid flowchart-link" style="" marker-end="url(#SVGID_flowchart-v2-pointEnd)"></path><path d="M135.308,553.337L149.611,538.048C163.913,522.758,192.518,492.179,213.071,494.747C233.623,497.315,246.123,533.031,256.832,550.888C267.541,568.746,276.459,568.746,284.71,568.746C292.961,568.746,300.545,568.746,304.338,568.746L308.13,568.746" id="L_Admin_RemoveItem_8" class=" edge-thickness-normal edge-pattern-solid edge-thickness-normal edge-pattern-solid flowchart-link" style="" marker-end="url(#SVGID_flowchart-v2-pointEnd)"></path><path d="M183.623,801.592L189.873,802.765C196.123,803.938,208.623,806.284,217.998,777.567C227.373,748.85,233.623,689.069,239.804,629.951C245.985,570.834,252.096,512.379,255.152,483.152L258.208,453.924" id="L_CentralDB_UserFunctions_9" class=" edge-thickness-normal edge-pattern-solid edge-thickness-normal edge-pattern-solid flowchart-link" style="" marker-end="url(#SVGID_flowchart-v2-pointEnd)"></path><path d="M183.623,772.094L189.873,770.598C196.123,769.101,208.623,766.108,217.998,786.214C227.373,806.32,233.623,849.526,239.778,892.071C245.933,934.616,251.992,976.502,255.021,997.445L258.051,1018.387" id="L_CentralDB_AdminFunctions_10" class=" edge-thickness-normal edge-pattern-solid edge-thickness-normal edge-pattern-solid flowchart-link" style="" marker-end="url(#SVGID_flowchart-v2-pointEnd)"></path><path d="M183.623,746.689L189.873,742.893C196.123,739.098,208.623,731.507,217.998,732.813C227.373,734.12,233.623,744.326,239.525,753.962C245.427,763.599,250.981,772.667,253.758,777.201L256.534,781.735" id="L_CentralDB_ItemManagement_11" class=" edge-thickness-normal edge-pattern-solid edge-thickness-normal edge-pattern-solid flowchart-link" style="" marker-end="url(#SVGID_flowchart-v2-pointEnd)"></path></g><g class="edgeLabels"><g><rect class="background" style="stroke: none"></rect></g><g><rect class="background" style="stroke: none"></rect></g><g><rect class="background" style="stroke: none"></rect></g><g><rect class="background" style="stroke: none"></rect></g><g><rect class="background" style="stroke: none"></rect></g><g><rect class="background" style="stroke: none"></rect></g><g><rect class="background" style="stroke: none"></rect></g><g><rect class="background" style="stroke: none"></rect></g><g><rect class="background" style="stroke: none"></rect></g><g><rect class="background" style="stroke: none"></rect></g><g><rect class="background" style="stroke: none"></rect></g><g><rect class="background" style="stroke: none"></rect></g><g class="edgeLabel"><g class="label" transform="translate(0, 0)"><text y="-10.1"><tspan class="text-outer-tspan" x="0" y="-0.1em" dy="1.1em"></tspan></text></g></g><g class="edgeLabel"><g class="label" transform="translate(0, 0)"><text y="-10.1"><tspan class="text-outer-tspan" x="0" y="-0.1em" dy="1.1em"></tspan></text></g></g><g class="edgeLabel"><g class="label" transform="translate(0, 0)"><text y="-10.1"><tspan class="text-outer-tspan" x="0" y="-0.1em" dy="1.1em"></tspan></text></g></g><g class="edgeLabel"><g class="label" transform="translate(0, 0)"><text y="-10.1"><tspan class="text-outer-tspan" x="0" y="-0.1em" dy="1.1em"></tspan></text></g></g><g class="edgeLabel"><g class="label" transform="translate(0, 0)"><text y="-10.1"><tspan class="text-outer-tspan" x="0" y="-0.1em" dy="1.1em"></tspan></text></g></g><g class="edgeLabel"><g class="label" transform="translate(0, 0)"><text y="-10.1"><tspan class="text-outer-tspan" x="0" y="-0.1em" dy="1.1em"></tspan></text></g></g><g class="edgeLabel"><g class="label" transform="translate(0, 0)"><text y="-10.1"><tspan class="text-outer-tspan" x="0" y="-0.1em" dy="1.1em"></tspan></text></g></g><g class="edgeLabel"><g class="label" transform="translate(0, 0)"><text y="-10.1"><tspan class="text-outer-tspan" x="0" y="-0.1em" dy="1.1em"></tspan></text></g></g><g class="edgeLabel"><g class="label" transform="translate(0, 0)"><text y="-10.1"><tspan class="text-outer-tspan" x="0" y="-0.1em" dy="1.1em"></tspan></text></g></g><g class="edgeLabel"><g class="label" transform="translate(0, 0)"><text y="-10.1"><tspan class="text-outer-tspan" x="0" y="-0.1em" dy="1.1em"></tspan></text></g></g><g class="edgeLabel"><g class="label" transform="translate(0, 0)"><text y="-10.1"><tspan class="text-outer-tspan" x="0" y="-0.1em" dy="1.1em"></tspan></text></g></g><g class="edgeLabel"><g class="label" transform="translate(0, 0)"><text y="-10.1"><tspan class="text-outer-tspan" x="0" y="-0.1em" dy="1.1em"></tspan></text></g></g></g><g class="nodes"><g class="node default  " id="flowchart-AddItem-959" transform="translate(388.8546905517578, 765.5461053848267)"><rect class="basic label-container" style="" data-id="abc" data-et="node" x="-62.85000228881836" y="-24.199999809265137" width="125.70000457763672" height="48.39999961853027"></rect><g class="label" style="" transform="translate(0, -9.199999809265137)"><rect></rect><g><rect class="background" style="stroke: none"></rect><text y="-10.1" style=""><tspan class="text-outer-tspan" x="0" y="-0.1em" dy="1.1em"><tspan font-style="normal" class="text-inner-tspan" font-weight="normal">Add</tspan><tspan font-style="normal" class="text-inner-tspan" font-weight="normal"> Item</tspan></tspan></text></g></g></g><g class="node default  " id="flowchart-User-950" transform="translate(114.56172180175781, 195.101957321167)"><circle class="basic label-container" style="" r="23.889062881469727" cx="0" cy="0"></circle><g class="label" style="" transform="translate(0, -9.199999809265137)"><rect></rect><g><rect class="background" style="stroke: none"></rect><text y="-10.1" style=""><tspan class="text-outer-tspan" x="0" y="-0.1em" dy="1.1em"><tspan font-style="normal" class="text-inner-tspan" font-weight="normal">User</tspan></tspan></text></g></g></g><g class="node default  " id="flowchart-Login-953" transform="translate(388.8546905517578, 397.91524028778076)"><rect class="basic label-container" style="" data-id="abc" data-et="node" x="-49.01250076293945" y="-24.199999809265137" width="98.0250015258789" height="48.39999961853027"></rect><g class="label" style="" transform="translate(0, -9.199999809265137)"><rect></rect><g><rect class="background" style="stroke: none"></rect><text y="-10.1" style=""><tspan class="text-outer-tspan" x="0" y="-0.1em" dy="1.1em"><tspan font-style="normal" class="text-inner-tspan" font-weight="normal">Login</tspan></tspan></text></g></g></g><g class="node default  " id="flowchart-ViewItems-954" transform="translate(388.8546905517578, 284.00000381469727)"><rect class="basic label-container" style="" data-id="abc" data-et="node" x="-69.61249923706055" y="-24.199999809265137" width="139.2249984741211" height="48.39999961853027"></rect><g class="label" style="" transform="translate(0, -9.199999809265137)"><rect></rect><g><rect class="background" style="stroke: none"></rect><text y="-10.1" style=""><tspan class="text-outer-tspan" x="0" y="-0.1em" dy="1.1em"><tspan font-style="normal" class="text-inner-tspan" font-weight="normal">View</tspan><tspan font-style="normal" class="text-inner-tspan" font-weight="normal"> Items</tspan></tspan></text></g></g></g><g class="node default  " id="flowchart-AddToCart-955" transform="translate(388.8546905517578, 185.60000228881836)"><rect class="basic label-container" style="" data-id="abc" data-et="node" x="-71.62031555175781" y="-24.199999809265137" width="143.24063110351562" height="48.39999961853027"></rect><g class="label" style="" transform="translate(0, -9.199999809265137)"><rect></rect><g><rect class="background" style="stroke: none"></rect><text y="-10.1" style=""><tspan class="text-outer-tspan" x="0" y="-0.1em" dy="1.1em"><tspan font-style="normal" class="text-inner-tspan" font-weight="normal">Add</tspan><tspan font-style="normal" class="text-inner-tspan" font-weight="normal"> to</tspan><tspan font-style="normal" class="text-inner-tspan" font-weight="normal"> Cart</tspan></tspan></text></g></g></g><g class="node default  " id="flowchart-Checkout-956" transform="translate(388.8546905517578, 87.20000076293945)"><rect class="basic label-container" style="" data-id="abc" data-et="node" x="-63.37968826293945" y="-24.199999809265137" width="126.7593765258789" height="48.39999961853027"></rect><g class="label" style="" transform="translate(0, -9.199999809265137)"><rect></rect><g><rect class="background" style="stroke: none"></rect><text y="-10.1" style=""><tspan class="text-outer-tspan" x="0" y="-0.1em" dy="1.1em"><tspan font-style="normal" class="text-inner-tspan" font-weight="normal">Checkout</tspan></tspan></text></g></g></g><g class="node default  " id="flowchart-Admin-951" transform="translate(114.56172180175781, 575.5152425765991)"><circle class="basic label-container" style="" r="30.368749618530273" cx="0" cy="0"></circle><g class="label" style="" transform="translate(0, -9.199999809265137)"><rect></rect><g><rect class="background" style="stroke: none"></rect><text y="-10.1" style=""><tspan class="text-outer-tspan" x="0" y="-0.1em" dy="1.1em"><tspan font-style="normal" class="text-inner-tspan" font-weight="normal">Admin</tspan></tspan></text></g></g></g><g class="node default  " id="flowchart-ManageUsers-957" transform="translate(388.8546905517578, 1002.3461084365845)"><rect class="basic label-container" style="" data-id="abc" data-et="node" x="-78.78750228881836" y="-24.199999809265137" width="157.57500457763672" height="48.39999961853027"></rect><g class="label" style="" transform="translate(0, -9.199999809265137)"><rect></rect><g><rect class="background" style="stroke: none"></rect><text y="-10.1" style=""><tspan class="text-outer-tspan" x="0" y="-0.1em" dy="1.1em"><tspan font-style="normal" class="text-inner-tspan" font-weight="normal">Manage</tspan><tspan font-style="normal" class="text-inner-tspan" font-weight="normal"> Users</tspan></tspan></text></g></g></g><g class="node default  " id="flowchart-GenerateReports-958" transform="translate(388.8546905517578, 903.9461069107056)"><rect class="basic label-container" style="" data-id="abc" data-et="node" x="-92.73125076293945" y="-24.199999809265137" width="185.4625015258789" height="48.39999961853027"></rect><g class="label" style="" transform="translate(0, -9.199999809265137)"><rect></rect><g><rect class="background" style="stroke: none"></rect><text y="-10.1" style=""><tspan class="text-outer-tspan" x="0" y="-0.1em" dy="1.1em"><tspan font-style="normal" class="text-inner-tspan" font-weight="normal">Generate</tspan><tspan font-style="normal" class="text-inner-tspan" font-weight="normal"> Reports</tspan></tspan></text></g></g></g><g class="node default  " id="flowchart-EditItem-960" transform="translate(388.8546905517578, 667.1461038589478)"><rect class="basic label-container" style="" data-id="abc" data-et="node" x="-63.01250076293945" y="-24.199999809265137" width="126.0250015258789" height="48.39999961853027"></rect><g class="label" style="" transform="translate(0, -9.199999809265137)"><rect></rect><g><rect class="background" style="stroke: none"></rect><text y="-10.1" style=""><tspan class="text-outer-tspan" x="0" y="-0.1em" dy="1.1em"><tspan font-style="normal" class="text-inner-tspan" font-weight="normal">Edit</tspan><tspan font-style="normal" class="text-inner-tspan" font-weight="normal"> Item</tspan></tspan></text></g></g></g><g class="node default  " id="flowchart-RemoveItem-961" transform="translate(388.8546905517578, 568.7461023330688)"><rect class="basic label-container" style="" data-id="abc" data-et="node" x="-76.72500228881836" y="-24.199999809265137" width="153.45000457763672" height="48.39999961853027"></rect><g class="label" style="" transform="translate(0, -9.199999809265137)"><rect></rect><g><rect class="background" style="stroke: none"></rect><text y="-10.1" style=""><tspan class="text-outer-tspan" x="0" y="-0.1em" dy="1.1em"><tspan font-style="normal" class="text-inner-tspan" font-weight="normal">Remove</tspan><tspan font-style="normal" class="text-inner-tspan" font-weight="normal"> Item</tspan></tspan></text></g></g></g><g class="node default  " id="flowchart-CentralDB-952" transform="translate(114.56172180175781, 788.6304798126221)"><circle class="basic label-container" style="" r="69.06172180175781" cx="0" cy="0"></circle><g class="label" style="" transform="translate(0, -9.199999809265137)"><rect></rect><g><rect class="background" style="stroke: none"></rect><text y="-10.1" style=""><tspan class="text-outer-tspan" x="0" y="-0.1em" dy="1.1em"><tspan font-style="normal" class="text-inner-tspan" font-weight="normal">Central</tspan><tspan font-style="normal" class="text-inner-tspan" font-weight="normal"> Database</tspan></tspan></text></g></g></g></g></g></g></g></g></svg>